<svg version="1.2" xmlns="http://www.w3.org/2000/svg" viewBox="0 0 566 244" width="566" height="244">
	<title>logo-svg</title>
	<style>
		.s0 { fill: none;stroke: #d09a8a;stroke-width: 2 } 
		.s1 { fill: none;stroke: #cb9585;stroke-width: 2 } 
		.s2 { fill: #ffffff } 
		.s3 { fill: #fbfbfb } 
	</style>
	<g id="Layer">
		<path id="Layer" fill-rule="evenodd" class="s0" d="m110 133.1q0.2-1-0.4-1.4-0.4-0.3-0.4-0.8 0-0.4 0.2-0.7 0.3-0.4 0.3-0.9-0.3-3.1 0.1-6.1 0.4-3 0.3-5.9 0-3.8 0-7.7 0 0 0 0 0 0 0 0 0-0.1 0-0.1 0 0 0.1 0l0.3-1.1q0.1-0.3-0.2-0.5l-1-0.6"/>
		<path id="Layer" fill-rule="evenodd" class="s0" d="m95.6 54.3q1.8-0.9 2.2-3.1 0.2-1.9-0.1-5.7-0.1-1.3-1.5-4-0.3-0.4-0.2-0.9 0.3-1.4-0.7-2.7-0.3-0.4-0.7-0.2-1.7 0.5-2.4-1.3-0.2-0.4-0.7-0.5l-12-1.3"/>
		<path id="Layer" fill-rule="evenodd" class="s1" d="m64.8 61q-0.6 0-1.1-0.2-0.1-0.1-0.2-0.2-0.1-0.1-0.1-0.2 0-0.1 0-0.3 0-0.1 0.1-0.2 0.3-0.5-0.1-0.9 0 0-0.1-0.1 0-0.1-0.1-0.1 0-0.1 0-0.2 0-0.1 0-0.1-0.2-2 0.1-3.9 0.2-1.6-0.1-3.4-0.8-6 0.7-11.7"/>
		<path id="Layer" fill-rule="evenodd" class="s0" d="m68 131.6q-0.1-1 0.4-2.1 0.1-0.2-0.1-0.1 0 0.1-0.1 0.1-0.1 0-0.1-0.2-0.8-12.1-0.3-24.3"/>
		<path id="Layer" fill-rule="evenodd" class="s0" d="m68 186.5q-0.7 0.2-0.9 1.3-0.2 1.6-0.1 2.7 0.3 1.5 0.9 3.1c0.4 1.2 0.1 2.3 0.8 3.5q0.2 0.4 0 0.9c-0.2 0.6-0.4 0.8-0.2 1.5q0.3 1.7 0.5 3.5 0.1 1.4 0.5 2.4 0.5 1.2 1 2.3"/>
		<path id="Layer" fill-rule="evenodd" class="s1" d="m113.3 201.8q-0.6-1.2 0-1.6 0.1-0.1 0-0.2 0 0-0.1 0-0.1-0.1-0.1-0.3 0-3.2 0.7-6.3 0.3-1 0.1-1.9c-0.2-1.5 0.2-3.1 0.2-4.7q0-4.5 0.6-7.8 0.6-3.2-0.3-4.8"/>
	</g>
	<path id="Layer" class="s2" d="m110 133.1q0.2-1-0.4-1.4-0.4-0.3-0.4-0.8 0-0.4 0.2-0.7 0.3-0.4 0.3-0.9-0.3-3.1 0.1-6.1 0.4-3 0.3-5.9 0-3.8 0-7.7 0 0 0 0 0 0 0 0 0-0.1 0-0.1 0 0 0.1 0l0.3-1.1q0.1-0.3-0.2-0.5l-1-0.6q6.3-7.5 7.9-16.6c3-16.3-6-30.7-21.6-36.4q1.8-0.9 2.2-3.1 0.2-1.9-0.1-5.7-0.1-1.3-1.5-4-0.3-0.4-0.2-0.9 0.3-1.4-0.7-2.7-0.3-0.4-0.8-0.2-1.6 0.5-2.3-1.3-0.2-0.4-0.7-0.5l-12-1.3q5.6-0.6 9.3-0.3 18.2 1.7 31.3 13.4 7.3 6.6 12.7 18.7 3.6 8.1 3.2 19.8-0.6 15.6-10.5 29.1-4.3 5.9-15.5 17.8z"/>
	<path id="Layer" class="s2" d="m79.5 34.6l12 1.3q0.5 0.1 0.7 0.5 0.7 1.8 2.3 1.3 0.5-0.2 0.8 0.2 1 1.3 0.7 2.7-0.1 0.5 0.2 0.9 1.4 2.7 1.5 4 0.3 3.8 0.1 5.7-0.4 2.2-2.2 3.1-17.8-4.7-30.8 6.7-0.6 0-1.1-0.2-0.1-0.1-0.2-0.2-0.1-0.1-0.1-0.2 0-0.1 0-0.3 0-0.1 0.1-0.2 0.3-0.5-0.1-0.9 0 0-0.1-0.1 0-0.1-0.1-0.1 0-0.1 0-0.2 0-0.1 0-0.1-0.2-2 0.1-3.9 0.2-1.6-0.1-3.4-0.8-6 0.7-11.7 7.6-3.6 15.6-4.9z"/>
	<path id="Layer" class="s2" d="m63.9 39.5q-1.5 5.7-0.7 11.8 0.3 1.7 0.1 3.3-0.3 1.9-0.2 3.9 0.1 0 0.1 0.1 0 0.1 0 0.2 0.1 0 0.1 0.1 0.1 0.1 0.1 0.1 0.4 0.4 0.1 0.9-0.1 0.1-0.1 0.2 0 0.2 0 0.3 0 0.1 0.1 0.2 0.1 0.1 0.2 0.2 0.5 0.2 1.1 0.2-6.5 6-9.1 14.2c-2 6.2-1.7 13-1.8 19.6 0 10.5-4.3 19.9-16 21.4q-0.3 0.1-0.7 0-0.3-0.1-0.6-0.3-0.3-0.2-0.5-0.5-0.2-0.3-0.3-0.7-0.4-2.5-0.4-5.2c-0.1-9.4-0.4-18.9 0.3-28.2 1.5-18.5 11.6-33.3 28.2-41.8z"/>
	<path id="Layer" class="s2" d="m256 105.5l-7.8-0.3q-0.2 0-0.4-0.1-0.2-0.1-0.4-0.2-0.1-0.2-0.2-0.4-0.1-0.2-0.1-0.4-0.2-4.6 0-9.5 0.2-2.4 2.6-2.5 3-0.2 5.8-0.1 0.3 0 0.7-0.2 0.3-0.1 0.5-0.3 0.2-0.3 0.4-0.6 0.1-0.3 0.1-0.6v-19q0-2 2-2.2 5.5-0.6 10.5-0.1 0.3 0 0.6 0.2 0.3 0.1 0.5 0.3 0.2 0.3 0.3 0.6 0.1 0.2 0.1 0.5l-0.2 19.2q0 2 2.1 2.1l7 0.2q1.4 0 1.4 1.4v10.2q0 1.7-1.7 1.8l-7.5 0.2q-0.3 0-0.5 0.1-0.2 0.1-0.4 0.3-0.2 0.1-0.3 0.4-0.1 0.2-0.1 0.5 0.1 23.7 0.1 46.2c-0.1 5.3 2.9 7.5 7.4 9.7q0.5 0.2 0.6 0.8 0.8 5.5 0.2 11.1 0 0.2-0.1 0.4-0.1 0.2-0.2 0.3-0.2 0.1-0.3 0.2-0.2 0.1-0.4 0.1c-5.7 0.2-10.9-2.3-14.7-6.6q-6.3-7.3-6.3-19.1-0.1-21.5-0.1-43.3 0-1.3-1.2-1.3z"/>
	<path id="Layer" class="s2" d="m177.5 161.4q0 1.2 1.2 1.2l18.2 0.4q1.6 0 1.7 1.6 0.3 5.6-0.3 10.7 0 0.1 0 0.2-0.1 0.1-0.2 0.2-0.1 0.1-0.2 0.2-0.1 0-0.3 0c-1.7 0.1-3.4 0.4-5.2 0.4q-13.9-0.2-26.9 0.2-0.3 0-0.6-0.1-0.3-0.2-0.6-0.4-0.2-0.2-0.3-0.5-0.1-0.3-0.1-0.6 0.5-51.4-0.1-103.1-0.1-2.5 2.5-2.5h30.2q0.3 0 0.6 0.1 0.4 0.1 0.6 0.3 0.3 0.3 0.5 0.6 0.1 0.3 0.2 0.6 0.8 5.6 0.2 11.2-0.2 1.2-1.4 1.1l-18.3-0.1q-0.2 0-0.4 0.1-0.2 0.1-0.4 0.2-0.1 0.1-0.2 0.3-0.1 0.2-0.1 0.4-0.8 10.4-0.4 19.7 0.1 2.5 2.5 2.3 8.3-0.8 16.7 0.3 0.2 0 0.4 0.1 0.3 0.1 0.5 0.3 0.2 0.2 0.3 0.4 0.1 0.2 0.2 0.4 1 4.5 0.3 9.9c-0.3 1.5-1.7 2-3 2q-7.6 0.3-16 0-0.3 0-0.6 0.1-0.4 0.1-0.6 0.4-0.3 0.2-0.4 0.5-0.1 0.4-0.2 0.7z"/>
	<path id="Layer" class="s2" d="m490.3 156.7c0 4.9 4.8 6.2 8.7 6.7q0.2 0 0.4 0.1 0.2 0.1 0.3 0.2 0.2 0.2 0.3 0.4 0 0.2 0 0.4v9.3q0 0.3-0.1 0.6-0.1 0.3-0.3 0.6-0.2 0.2-0.5 0.4-0.3 0.2-0.6 0.3c-9.1 1.9-16.6-4.4-20.1-12.4q-1.6-3.8-1.6-10.9c-0.1-12.6 0.1-26.3 0.1-39.1-0.1-12.7 0.3-25.2 0-38.1q-0.1-2 0.1-4 0.3-2 2.3-2 4.2 0.1 8 0.1 3.1 0 3.1 3.1 0 43-0.1 84.3z"/>
	<path id="Layer" class="s2" d="m528.3 175.6c-8.9 1.2-17.5-4-20.9-11.9q-1.1-2.6-1.1-5.9 0-42.9 0.1-85.9 0-2.2 2.2-2.4 4.1-0.4 9.1 0.1 0.3 0.1 0.5 0.2 0.3 0.1 0.5 0.3 0.2 0.2 0.3 0.4 0.1 0.3 0.2 0.5 0.5 3.1 0.5 5.9 0.1 37.8 0 77c0 7 2.3 8.2 8.8 9.2q0.1 0 0.3 0.1 0.2 0.1 0.3 0.2 0.1 0.1 0.2 0.3 0.1 0.2 0.1 0.4 0.6 5.2 0.1 10.2 0 0.3-0.1 0.5-0.1 0.2-0.3 0.4-0.1 0.2-0.4 0.3-0.2 0.1-0.4 0.1z"/>
	<path id="Layer" class="s2" d="m68 131.6q-0.1-1 0.4-2.1 0.1-0.2-0.1-0.1 0 0.1-0.1 0.1-0.1 0-0.1-0.2-0.8-12.1-0.3-24.3l30.1-33.7q0.4-0.4 0.8 0c5.5 4.7 6.5 12.5 4.6 19q-1 3-5.6 8.4-14.6 16.6-29.7 32.9z"/>
	<path id="Layer" class="s2" d="m224.3 105.5q0 0-0.1 0.1-3.9 0.4-3.9 4.3-0.1 33.8 0 65.8 0 1.1-1.1 1.1h-10.5q-2.1 0-2.1-2.2-0.4-36.8 0.3-73.8c0.1-3.6-0.6-7.1 0.1-10.7q0.1-0.5 0.7-0.6c3.9-0.5 9-0.7 12.8 1.2q2.2 1.1 5 1.3c6.7 0.6 12.4 4.5 15.2 10.7q1.4 3.1 1.4 9.6 0.1 33.1-0.2 64 0 0.1 0 0.2-0.1 0.1-0.1 0.2-0.1 0.1-0.2 0.1-0.1 0.1-0.2 0.1l-11.9-0.1q-0.2 0-0.5-0.1-0.2-0.1-0.4-0.3-0.2-0.2-0.3-0.4 0-0.2-0.1-0.5 0-33.1 0-66.5 0-3.9-3.9-3.5z"/>
	<path id="Layer" class="s2" d="m405.6 162.1q2.4-1.1 2.5-5 0.1-4.6 0.3-9.6 0.1-2.6 2.7-2.7 4.7-0.3 9 0 0.3 0.1 0.6 0.2 0.2 0.1 0.4 0.3 0.2 0.2 0.3 0.5 0.1 0.2 0.1 0.5 0.1 5.3-0.1 10.2c-0.3 6.9-3.6 15.1-10.4 17.9-10.4 4.4-23.8 1.2-27.6-10.5q-1.2-3.7-1.2-9.7 0-16.5 0.3-38.2 0.1-3.3 0.2-6.5c0.8-15 13.8-21.1 27.1-16.6q5.2 1.7 8.1 6.1c4.3 6.3 4.2 13.1 3.7 20.3q0 0.2 0 0.4-0.1 0.2-0.2 0.3-0.2 0.1-0.3 0.2-0.2 0.1-0.4 0.1-4.8 0.6-10.2 0-0.5-0.1-0.8-0.4c-1.7-1.9-1.4-8.3-1.5-10.9-0.2-4.1-3.5-4.7-6.8-4.6-5.3 0.3-5.6 4.4-5.6 8.4q-0.1 23.3-0.1 46.1c0 4.8 7.1 4.5 9.8 3.2z"/>
	<path id="Layer" class="s2" d="m304.2 95c3.9 0.1 7.7 0.1 11.5 1.2q15.4 4.6 13.3 23.1-0.1 0.6-0.7 0.7-5.8 0.4-11.5 0-0.2-0.1-0.5-0.2-0.2-0.1-0.4-0.2-0.1-0.2-0.3-0.5-0.1-0.2-0.1-0.4-0.2-3.5-0.5-6.6-0.3-2.7-3-3.3c-5.5-1-8.7 0.2-8.7 6.4q0 29.8-0.4 59.6 0 1.4-1.5 1.5-5.4 0.4-10.9-0.1-0.2-0.1-0.3-0.1-0.1-0.1-0.2-0.1-0.1-0.1-0.2-0.3-0.1-0.1-0.1-0.2-0.4-1.5-0.4-3.3 0.4-41.3 0.5-79.5 0-0.1 0-0.2 0.1-0.1 0.2-0.2 0-0.1 0.1-0.1 0.1-0.1 0.3-0.1 4.9-0.3 10.8 0.2 1.7 0.2 2 1.9 0.2 0.7 1 0.8z"/>
	<path id="Layer" fill-rule="evenodd" class="s2" d="m443.8 130q-0.6 1.8-0.6 3.6 0 11.4 0 22.7 0 6.1 5.5 6.4c4.2 0.1 6.4-3.2 6.5-7.1 0-2.8 0.1-7.4 3.7-7.8q3.8-0.5 7.9 0.1 1.7 0.3 1.7 2.2 0.1 3.5-0.1 6.8c-0.6 9-7.4 17.7-16.8 18.9q-8.3 1-14.6-4.6c-4-3.5-6.7-7.9-6.8-13.1q-0.5-23.6 0-48.4c0.2-7.6 4.7-14.4 11.9-16.7 5-1.5 12.6-1.3 17.3 1.7q7.9 5.1 8.6 13.8 0.3 4.1 0.2 19 0 0.2-0.1 0.3 0 0.1-0.1 0.2 0 0.1-0.1 0.1-0.1 0.1-0.2 0.1-2.4 0.9-4.7 1-9.3 0.1-18.4 0.3-0.2 0-0.3 0-0.1 0.1-0.2 0.1-0.1 0.1-0.2 0.2-0.1 0.1-0.1 0.2zm1.4-13.7l8.1-0.1q0.4 0 0.8-0.2 0.3-0.1 0.6-0.4 0.3-0.3 0.5-0.7 0.1-0.3 0.1-0.7v-4.1q-0.1-1.1-0.5-2-0.4-1-1.1-1.8-0.8-0.7-1.7-1.1-1-0.4-2-0.4h-1.7q-1.1 0-2 0.5-1 0.4-1.7 1.1-0.7 0.8-1.1 1.8-0.4 1-0.4 2v4.1q0 0.4 0.2 0.7 0.2 0.4 0.4 0.7 0.3 0.3 0.7 0.4 0.4 0.2 0.8 0.2z"/>
	<path id="Layer" fill-rule="evenodd" class="s2" d="m358.7 92.7c10.4 2 15.2 11.9 15.3 21.5q0.1 16 0 32.2 0 12.4-0.5 14.2c-2.6 10.7-12.5 17.6-23.4 15.5q-3.1-0.5-6-2.4-10-6.4-10-18.7 0.1-18.4 0-40.7c-0.1-7.6 2.1-12.9 7.4-17.9 4.5-4.1 11.4-4.9 17.2-3.7zm1.9 19.1q0-1.2-0.4-2.4-0.5-1.1-1.4-2-0.8-0.9-2-1.3-1.1-0.5-2.4-0.5h-0.3q-1.2 0-2.3 0.4-1.2 0.5-2.1 1.4-0.8 0.9-1.3 2-0.5 1.1-0.5 2.4l-0.1 44.6q0 1.3 0.4 2.4 0.5 1.1 1.4 2 0.8 0.9 2 1.4 1.1 0.4 2.3 0.4h0.4q1.2 0 2.3-0.4 1.2-0.5 2-1.4 0.9-0.8 1.4-2 0.5-1.1 0.5-2.3z"/>
	<path id="Layer" class="s2" d="m67.8 105q-0.5 12.2 0.3 24.3 0 0.2 0.2 0.2 0 0 0-0.1 0.2-0.1 0.1 0.1-0.5 1.1-0.4 2.1-3 3.5-6 7.1-13.4 15.8-5.1 34.4 3.2 7.2 11.1 13.4-0.7 0.2-0.9 1.3-0.2 1.6-0.1 2.7 0.3 1.5 0.9 3.1c0.4 1.2 0.1 2.3 0.8 3.5q0.2 0.4 0 0.9c-0.2 0.6-0.4 0.8-0.2 1.5q0.3 1.7 0.5 3.5 0.1 1.4 0.5 2.4 0.5 1.2 1 2.3-17.6-5.8-26.6-20.3-14.9-23.9-3-49.6c2.2-4.5 5.6-8.6 8.7-12.5 5.7-7.1 12.1-13.5 18.2-20.3z"/>
	<path id="Layer" class="s2" d="m109.3 107.3l1 0.6q0.3 0.2 0.2 0.5l-0.3 1.1q-0.1 0-0.1 0 0 0 0 0.1 0 0 0 0 0 0 0 0 0 3.9 0 7.7 0.1 2.9-0.3 5.9-0.4 3-0.1 6.1 0 0.5-0.3 0.9-0.2 0.3-0.2 0.7 0 0.5 0.4 0.8 0.6 0.4 0.4 1.4l-36.1 40.1q-0.5 0.5-1 0.1-1.7-1.5-2.7-3.5-6.4-12.3 2.5-22.4 9.1-10.4 36.6-40.1z"/>
	<path id="Layer" class="s2" d="m113.3 201.8q-0.6-1.2 0-1.6 0.1-0.1 0-0.2 0 0-0.1 0-0.1-0.1-0.1-0.3 0-3.2 0.7-6.3 0.3-1 0.1-1.9c-0.2-1.5 0.2-3.1 0.2-4.7q0-4.5 0.6-7.8 0.6-3.2-0.3-4.8 2.9-5.8 3.3-13.2 0.4-7.3 0.7-14.5c0.3-9.5 5.7-17.9 15.8-18.3q1.9-0.1 2 1.8 0.2 13.5 0 27-0.1 7.1-1.5 13.8-4.4 20-21.4 31z"/>
	<path id="Layer" class="s3" d="m114.4 174.2q0.9 1.6 0.3 4.8-0.6 3.3-0.6 7.8c0 1.7-0.4 3.2-0.2 4.7q0.2 0.9-0.1 1.9-0.7 3.1-0.7 6.3 0 0.2 0.1 0.3 0.1 0 0.1 0 0.1 0.1 0 0.2-0.6 0.4 0 1.6-19.7 12.7-42.9 5.9-0.4-1.1-0.9-2.3-0.4-1-0.5-2.4-0.2-1.8-0.5-3.5c-0.2-0.7 0-0.9 0.2-1.5q0.2-0.5 0-0.9c-0.7-1.2-0.4-2.3-0.8-3.5q-0.6-1.6-0.9-3.1-0.1-1.1 0.1-2.7 0.2-1.1 0.9-1.3 11.3 6.5 24 4.5 14.6-2.3 22.4-16.8z"/>
</svg>